<svg width="22" height="22" viewBox="0 0 22 22" fill="none" xmlns="http://www.w3.org/2000/svg">
<rect width="22" height="22" rx="11" fill="#30B5DF"/>
<path d="M15.0234 14.875V16.5H7.32031V15.1094L11.0156 11.1172C11.401 10.6797 11.7057 10.2995 11.9297 9.97656C12.1536 9.65365 12.3125 9.36198 12.4062 9.10156C12.5052 8.83594 12.5547 8.58333 12.5547 8.34375C12.5547 7.99479 12.4922 7.6901 12.3672 7.42969C12.2422 7.16406 12.0599 6.95833 11.8203 6.8125C11.5859 6.66667 11.2969 6.59375 10.9531 6.59375C10.5729 6.59375 10.2474 6.68229 9.97656 6.85938C9.71094 7.03125 9.50781 7.27083 9.36719 7.57812C9.23177 7.88542 9.16406 8.23698 9.16406 8.63281H7.09375C7.09375 7.96094 7.25 7.34896 7.5625 6.79688C7.875 6.23958 8.32292 5.79427 8.90625 5.46094C9.48958 5.1276 10.1823 4.96094 10.9844 4.96094C11.7656 4.96094 12.4271 5.09115 12.9688 5.35156C13.5104 5.60677 13.9219 5.97135 14.2031 6.44531C14.4844 6.91927 14.625 7.48438 14.625 8.14062C14.625 8.50521 14.5651 8.86458 14.4453 9.21875C14.3255 9.57292 14.1562 9.92448 13.9375 10.2734C13.724 10.6172 13.4688 10.9661 13.1719 11.3203C12.875 11.6745 12.5443 12.0365 12.1797 12.4062L9.96094 14.875H15.0234Z" fill="white"/>
</svg>
