<svg width="22" height="22" viewBox="0 0 22 22" fill="none" xmlns="http://www.w3.org/2000/svg">
<rect width="22" height="22" rx="11" fill="#30B5DF"/>
<path d="M9.57812 9.89844H10.7422C11.1536 9.89844 11.4922 9.82812 11.7578 9.6875C12.0286 9.54167 12.2292 9.34375 12.3594 9.09375C12.4948 8.83854 12.5625 8.54427 12.5625 8.21094C12.5625 7.88281 12.5026 7.59896 12.3828 7.35938C12.263 7.11458 12.0807 6.92708 11.8359 6.79688C11.5964 6.66146 11.2891 6.59375 10.9141 6.59375C10.612 6.59375 10.3333 6.65365 10.0781 6.77344C9.82812 6.89323 9.6276 7.0651 9.47656 7.28906C9.33073 7.50781 9.25781 7.77083 9.25781 8.07812H7.1875C7.1875 7.46354 7.34896 6.92448 7.67188 6.46094C8 5.99219 8.44271 5.625 9 5.35938C9.55729 5.09375 10.1797 4.96094 10.8672 4.96094C11.6172 4.96094 12.2734 5.08594 12.8359 5.33594C13.4036 5.58073 13.8438 5.94271 14.1562 6.42188C14.474 6.90104 14.6328 7.49479 14.6328 8.20312C14.6328 8.54167 14.5521 8.88021 14.3906 9.21875C14.2344 9.55208 14.0026 9.85417 13.6953 10.125C13.3932 10.3906 13.0208 10.6068 12.5781 10.7734C12.1406 10.9349 11.638 11.0156 11.0703 11.0156H9.57812V9.89844ZM9.57812 11.4922V10.3906H11.0703C11.7109 10.3906 12.2656 10.4661 12.7344 10.6172C13.2083 10.763 13.599 10.9714 13.9062 11.2422C14.2135 11.5078 14.4401 11.8177 14.5859 12.1719C14.737 12.526 14.8125 12.9062 14.8125 13.3125C14.8125 13.8438 14.7135 14.3177 14.5156 14.7344C14.3177 15.1458 14.0391 15.4948 13.6797 15.7812C13.3255 16.0677 12.9089 16.2865 12.4297 16.4375C11.9505 16.5833 11.4323 16.6562 10.875 16.6562C10.3906 16.6562 9.91927 16.5911 9.46094 16.4609C9.00781 16.3255 8.59896 16.125 8.23438 15.8594C7.86979 15.5885 7.58073 15.25 7.36719 14.8438C7.15365 14.4323 7.04688 13.9557 7.04688 13.4141H9.11719C9.11719 13.7266 9.19271 14.0052 9.34375 14.25C9.5 14.4948 9.71354 14.6875 9.98438 14.8281C10.2604 14.9635 10.5703 15.0312 10.9141 15.0312C11.2943 15.0312 11.6198 14.9635 11.8906 14.8281C12.1667 14.6875 12.3776 14.4896 12.5234 14.2344C12.6693 13.974 12.7422 13.6641 12.7422 13.3047C12.7422 12.8776 12.6615 12.5312 12.5 12.2656C12.3385 12 12.1068 11.8047 11.8047 11.6797C11.5078 11.5547 11.1536 11.4922 10.7422 11.4922H9.57812Z" fill="white"/>
</svg>
