<svg width="30" height="30" viewBox="0 0 30 30" fill="none" xmlns="http://www.w3.org/2000/svg">
<path d="M21.5946 6.83909C22.1386 7.03951 22.5 7.5578 22.5 8.13755L22.5 21.8657C22.5 22.4454 22.1386 22.9637 21.5946 23.1641C20.5653 23.5433 19.4347 23.5433 18.4054 23.1641C17.8614 22.9637 17.5 22.4454 17.5 21.8657L17.5 8.13755C17.5 7.5578 17.8614 7.03951 18.4054 6.83909C19.4347 6.45989 20.5653 6.45989 21.5946 6.83909Z" fill="white"/>
<path d="M11.5946 6.83909C12.1386 7.03951 12.5 7.5578 12.5 8.13755L12.5 21.8657C12.5 22.4454 12.1386 22.9637 11.5946 23.1641C10.5653 23.5433 9.43465 23.5433 8.4054 23.1641C7.8614 22.9637 7.5 22.4454 7.5 21.8657L7.5 8.13755C7.5 7.5578 7.8614 7.03951 8.4054 6.83909C9.43465 6.45989 10.5653 6.45989 11.5946 6.83909Z" fill="white"/>
</svg>
