<svg width="63" height="15" viewBox="0 0 63 15" fill="none" xmlns="http://www.w3.org/2000/svg">
<path d="M0.553211 0.514884H13.6722C13.9777 0.514884 14.2254 0.758031 14.2254 1.05797V3.59058C14.2254 3.92793 14.0763 4.24734 13.8167 4.46838L6.48047 10.4933H13.6722C13.9777 10.4933 14.2254 10.732 14.2254 11.0319V13.9394C14.2254 14.2394 13.9777 14.4825 13.6722 14.4825H0.553211C0.247681 14.4825 0 14.2394 0 13.9394V11.411C0 11.0736 0.149118 10.7542 0.408715 10.5332L7.74495 4.50828H0.553211C0.247681 4.50828 0 4.25959 0 3.95966V1.05797C0 0.758031 0.247681 0.514884 0.553211 0.514884ZM23.3703 0.0195312C24.8872 0.0195312 26.2396 0.354402 27.3686 0.966357C28.4976 1.57831 29.4032 2.46735 30.0266 3.57568C30.65 4.68402 30.9911 6.01164 30.9911 7.50078C30.9911 8.98992 30.65 10.3175 30.0266 11.4259C29.4032 12.5342 28.4976 13.4233 27.3686 14.0352C26.2396 14.6472 24.8872 14.982 23.3703 14.982C21.8534 14.982 20.501 14.6472 19.372 14.0352C18.243 13.4233 17.3374 12.5342 16.714 11.4259C16.0907 10.3175 15.7496 8.98992 15.7496 7.50078C15.7496 6.01164 16.0907 4.68402 16.714 3.57568C17.3374 2.46735 18.243 1.57831 19.372 0.966357C20.501 0.354402 21.8534 0.0195312 23.3703 0.0195312ZM23.3703 4.00953C22.6447 4.00953 22.0077 4.16 21.4808 4.43978C20.954 4.71956 20.5372 5.12864 20.2522 5.64586C19.9672 6.16309 19.814 6.78845 19.814 7.50078C19.814 8.21311 19.9672 8.83848 20.2522 9.3557C20.5372 9.87292 20.954 10.282 21.4808 10.5618C22.0077 10.8416 22.6447 10.992 23.3703 10.992C24.0959 10.992 24.733 10.8416 25.2598 10.5618C25.7867 10.282 26.2034 9.87292 26.4884 9.3557C26.7734 8.83848 26.9267 8.21311 26.9267 7.50078C26.9267 6.78845 26.7734 6.16309 26.4884 5.64586C26.2034 5.12864 25.7867 4.71956 25.2598 4.43978C24.733 4.16 24.0959 4.00953 23.3703 4.00953ZM39.6279 0.0195312C41.1449 0.0195312 42.4972 0.354402 43.6262 0.966357C44.7552 1.57831 45.6609 2.46735 46.2842 3.57568C46.9076 4.68402 47.2487 6.01164 47.2487 7.50078C47.2487 8.98992 46.9076 10.3175 46.2842 11.4259C45.6609 12.5342 44.7552 13.4233 43.6262 14.0352C42.4972 14.6472 41.1449 14.982 39.6279 14.982C38.111 14.982 36.7587 14.6472 35.6297 14.0352C34.5006 13.4233 33.595 12.5342 32.9717 11.4259C32.3483 10.3175 32.0072 8.98992 32.0072 7.50078C32.0072 6.01164 32.3483 4.68402 32.9717 3.57568C33.595 2.46735 34.5006 1.57831 35.6297 0.966357C36.7587 0.354402 38.111 0.0195312 39.6279 0.0195312ZM39.6279 4.00953C38.9023 4.00953 38.2653 4.16 37.7384 4.43978C37.2116 4.71956 36.7949 5.12864 36.5099 5.64586C36.2249 6.16309 36.0716 6.78845 36.0716 7.50078C36.0716 8.21311 36.2249 8.83848 36.5099 9.3557C36.7949 9.87292 37.2116 10.282 37.7384 10.5618C38.2653 10.8416 38.9023 10.992 39.6279 10.992C40.3536 10.992 40.9906 10.8416 41.5175 10.5618C42.0443 10.282 42.461 9.87292 42.746 9.3557C43.031 8.83848 43.1843 8.21311 43.1843 7.50078C43.1843 6.78845 43.031 6.16309 42.746 5.64586C42.461 5.12864 42.0443 4.71956 41.5175 4.43978C40.9906 4.16 40.3536 4.00953 39.6279 4.00953ZM63 1.0597V13.9392C63 14.2392 62.7523 14.4823 62.4468 14.4823H59.8687C59.5251 14.4823 59.1997 14.336 58.9745 14.0812L52.8373 6.88008V13.9392C52.8373 14.2392 52.584 14.4823 52.2784 14.4823H49.3244C49.0188 14.4823 48.7711 14.2392 48.7711 13.9392V1.0597C48.7711 0.759742 49.0188 0.516583 49.3244 0.516583H51.9024C52.2461 0.516583 52.5714 0.663009 52.7966 0.917913L58.9339 8.12148V1.0597C58.9339 0.759742 59.177 0.516583 59.4826 0.516583H62.4468C62.7523 0.516583 63 0.759742 63 1.0597Z" fill="url(#paint0_linear_0_42214)"/>
<defs>
<linearGradient id="paint0_linear_0_42214" x1="1.88091e-07" y1="9.64924" x2="62.9982" y2="9.33234" gradientUnits="userSpaceOnUse">
<stop offset="0.28523" stop-color="#3E3F53"/>
<stop offset="0.762079" stop-color="#5E3BEC"/>
</linearGradient>
</defs>
</svg>
