<svg width="25" height="25" viewBox="0 0 25 25" fill="none" xmlns="http://www.w3.org/2000/svg">
<rect width="25" height="25" rx="12.5" fill="#30B5DF"/>
<path fill-rule="evenodd" clip-rule="evenodd" d="M8.66536 8.16667C8.66536 6.97005 9.63541 6 10.832 6C11.5022 6 12.1013 6.30424 12.4987 6.78214C12.8961 6.30424 13.4952 6 14.1654 6C15.362 6 16.332 6.97005 16.332 8.16667C16.332 8.66951 16.1607 9.13234 15.8733 9.5H16.4987C17.4192 9.5 18.1654 10.2462 18.1654 11.1667V12C18.1654 12.2761 17.9415 12.5 17.6654 12.5H13.1987C13.0882 12.5 12.9987 12.4105 12.9987 12.3V9.99273C12.8101 9.87196 12.6414 9.72277 12.4987 9.55119C12.356 9.72277 12.1873 9.87196 11.9987 9.99273V12.3C11.9987 12.4105 11.9092 12.5 11.7987 12.5H7.33203C7.05589 12.5 6.83203 12.2761 6.83203 12V11.1667C6.83203 10.2462 7.57822 9.5 8.4987 9.5H9.12408C8.83666 9.13234 8.66536 8.66951 8.66536 8.16667ZM11.9987 8.16667C11.9987 7.52233 11.4764 7 10.832 7C10.1877 7 9.66536 7.52233 9.66536 8.16667C9.66536 8.811 10.1877 9.33333 10.832 9.33333C11.4764 9.33333 11.9987 8.811 11.9987 8.16667ZM12.9987 8.16667C12.9987 8.811 13.521 9.33333 14.1654 9.33333C14.8097 9.33333 15.332 8.811 15.332 8.16667C15.332 7.52233 14.8097 7 14.1654 7C13.521 7 12.9987 7.52233 12.9987 8.16667Z" fill="white"/>
<path d="M11.9987 13.6C11.9987 13.4895 11.9092 13.4 11.7987 13.4H8.26471C7.99427 13.4 7.76318 13.5949 7.71751 13.8614C7.56947 14.7253 7.56947 15.6081 7.71751 16.4719L7.86705 17.3446C7.96774 17.9322 8.44497 18.3824 9.03745 18.4486L9.74753 18.5279C10.4281 18.604 11.1111 18.6517 11.7947 18.6712C11.9067 18.6744 11.9987 18.5841 11.9987 18.4721L11.9987 13.6Z" fill="white"/>
<path d="M13.2027 18.6712C13.0907 18.6744 12.9987 18.5841 12.9987 18.4721L12.9987 13.6C12.9987 13.4895 13.0882 13.4 13.1987 13.4H16.7327C17.0031 13.4 17.2342 13.5949 17.2799 13.8614C17.4279 14.7253 17.4279 15.6081 17.2799 16.4719L17.1303 17.3446C17.0297 17.9322 16.5524 18.3824 15.9599 18.4486L15.2499 18.5279C14.5693 18.604 13.8863 18.6517 13.2027 18.6712Z" fill="white"/>
</svg>
