<svg width="140" height="13" viewBox="0 0 140 13" fill="none" xmlns="http://www.w3.org/2000/svg">
<path fill-rule="evenodd" clip-rule="evenodd" d="M6.11205 0.797732C6.13642 0.797733 6.16086 0.797735 6.18538 0.797735C6.20992 0.797735 6.23437 0.797733 6.25873 0.797732C7.27525 0.79768 8.14736 0.797635 8.84495 0.888863C9.59107 0.98644 10.301 1.20579 10.8761 1.76523C11.4513 2.32467 11.6767 3.01517 11.7771 3.74094C11.8709 4.41948 11.8708 5.26777 11.8708 6.25654V11.609C11.8708 12.2034 11.3754 12.6854 10.7642 12.6854C10.1531 12.6854 9.65766 12.2034 9.65766 11.609V6.32788C9.65766 5.24768 9.65528 4.54581 9.58368 4.02778C9.51639 3.54072 9.40661 3.38021 9.31117 3.28741C9.21581 3.19459 9.05079 3.08782 8.55006 3.02234C8.01749 2.95269 7.29592 2.95041 6.18538 2.95041C5.07486 2.95041 4.35329 2.95269 3.82072 3.02234C3.31999 3.08782 3.15497 3.19459 3.05956 3.28741C2.96415 3.38021 2.85438 3.54072 2.78706 4.02778C2.71546 4.54581 2.71311 5.24768 2.71311 6.32788V11.609C2.71311 12.2034 2.21769 12.6854 1.60656 12.6854C0.995425 12.6854 0.500005 12.2034 0.500005 11.609V6.32788C0.500005 6.30402 0.500004 6.28024 0.500003 6.25654C0.499949 5.26777 0.499903 4.41948 0.593692 3.74094C0.694009 3.01517 0.919518 2.32467 1.49466 1.76523C2.0698 1.20579 2.77969 0.98644 3.52583 0.888863C4.22342 0.797635 5.09552 0.79768 6.11205 0.797732Z" fill="#D93B33"/>
<path fill-rule="evenodd" clip-rule="evenodd" d="M13.9373 2.62928C13.9373 1.61764 14.7937 0.797546 15.8504 0.797546H21.3164C23.2355 0.797546 24.7912 2.28711 24.7912 4.12458V5.34666C24.7912 7.18414 23.2355 8.6737 21.3164 8.6737H16.2018V11.6011C16.2018 12.1998 15.6949 12.6852 15.0695 12.6852C14.4442 12.6852 13.9373 12.1998 13.9373 11.6011V2.62928ZM16.2018 6.50552H21.3164C21.9848 6.50552 22.5267 5.98668 22.5267 5.34666V4.12458C22.5267 3.48457 21.9848 2.96573 21.3164 2.96573H16.2018V6.50552Z" fill="#D93B33"/>
<path fill-rule="evenodd" clip-rule="evenodd" d="M102.836 2.62947C102.836 1.61783 103.693 0.797729 104.749 0.797729H110.215C112.134 0.797729 113.69 2.28729 113.69 4.12476V5.34685C113.69 7.18432 112.134 8.67388 110.215 8.67388H105.1V11.6012C105.1 12.2 104.594 12.6854 103.968 12.6854C103.343 12.6854 102.836 12.2 102.836 11.6012V2.62947ZM105.1 6.5057H110.215C110.883 6.5057 111.425 5.98687 111.425 5.34685V4.12476C111.425 3.48475 110.883 2.96591 110.215 2.96591H105.1V6.5057Z" fill="#2F6EBA"/>
<path fill-rule="evenodd" clip-rule="evenodd" d="M130.28 0.797572L130.228 0.797559C129.914 0.797444 129.578 0.797321 129.296 0.834761C128.965 0.878471 128.546 0.990362 128.195 1.33624C127.843 1.68211 127.73 2.09353 127.685 2.41864C127.647 2.69711 127.647 3.0277 127.647 3.33655V3.38735V6.33397C127.647 6.33666 127.647 6.33935 127.647 6.34204C127.647 6.34429 127.647 6.34654 127.647 6.3488V11.5967C127.647 12.1978 128.143 12.6851 128.754 12.6851C128.811 12.6851 128.867 12.6808 128.922 12.6727C128.976 12.6808 129.033 12.6851 129.09 12.6851H135.24L135.304 12.6852C135.596 12.6853 135.843 12.6854 136.065 12.6565C137.589 12.4592 138.789 11.2797 138.989 9.78073C139.018 9.56149 139.018 9.31824 139.018 9.03146V8.96938V8.9073C139.018 8.62052 139.018 8.37729 138.989 8.15803C138.881 7.35197 138.484 6.63827 137.904 6.12C138.363 5.57333 138.636 4.87309 138.636 4.09004C138.636 2.24516 137.116 0.797572 135.24 0.797572H130.28ZM129.86 7.33269V10.5082H135.24C135.63 10.5082 135.718 10.5059 135.777 10.4983C136.307 10.4295 136.725 10.0187 136.794 9.4966C136.802 9.43879 136.805 9.35258 136.805 8.96936C136.805 8.58614 136.802 8.49994 136.794 8.44216C136.725 7.92005 136.307 7.41138 135.777 7.34264C135.718 7.33503 135.63 7.33269 135.24 7.33269H129.86ZM135.24 5.25357H129.86V3.38735C129.86 3.22127 129.86 3.08982 129.863 2.97689C129.977 2.97455 130.111 2.97449 130.28 2.97449H135.24C135.894 2.97449 136.423 3.44744 136.423 4.09004C136.423 4.73264 135.894 5.25357 135.24 5.25357Z" fill="#2F6EBA"/>
<path fill-rule="evenodd" clip-rule="evenodd" d="M58.3238 0.797731C58.3453 0.797732 58.3669 0.797734 58.3885 0.797734C58.4102 0.797734 58.4317 0.797732 58.4533 0.797731C59.3573 0.797695 60.1334 0.797664 60.7627 0.862495C61.4308 0.931331 62.0783 1.08456 62.6497 1.48526C62.9021 1.66225 63.128 1.86873 63.3217 2.0994C63.7601 2.62159 63.9277 3.21347 64.003 3.82407C64.074 4.39914 64.0739 5.10844 64.0739 5.9347V7.5484C64.0739 8.37466 64.074 9.08396 64.003 9.65901C63.9277 10.2696 63.7601 10.8615 63.3217 11.3837C63.128 11.6144 62.9021 11.8208 62.6497 11.9978C62.0783 12.3986 61.4308 12.5518 60.7627 12.6206C60.1334 12.6855 59.3573 12.6854 58.4533 12.6854H58.3238C57.4197 12.6854 56.6436 12.6855 56.0144 12.6206C55.3464 12.5518 54.6987 12.3986 54.1274 11.9978C53.875 11.8208 53.6491 11.6144 53.4554 11.3837C53.017 10.8615 52.8493 10.2696 52.774 9.65901C52.7031 9.08396 52.7031 8.37465 52.7031 7.54839V5.9939C52.7031 5.97411 52.7031 5.95438 52.7031 5.93471C52.7031 5.10844 52.7031 4.39915 52.774 3.82407C52.8493 3.21347 53.017 2.62159 53.4554 2.0994C53.6491 1.86873 53.875 1.66225 54.1274 1.48526C54.6987 1.08456 55.3464 0.931331 56.0144 0.862495C56.6436 0.797664 57.4197 0.797695 58.3238 0.797731ZM56.1248 3.01703C55.6683 3.06407 55.5057 3.14259 55.4162 3.20539C55.3282 3.26705 55.2496 3.33896 55.1821 3.4193C55.1134 3.50115 55.0274 3.64972 54.976 4.06697C54.9218 4.50605 54.92 5.09185 54.92 5.9939V7.4892C54.92 8.39125 54.9218 8.97705 54.976 9.41616C55.0274 9.83336 55.1134 9.98195 55.1821 10.0638C55.2496 10.1441 55.3282 10.2161 55.4162 10.2777C55.5057 10.3405 55.6683 10.419 56.1248 10.4661C56.6052 10.5155 57.4016 10.5172 58.3885 10.5172C59.3755 10.5172 60.2337 10.5155 60.7142 10.4661C61.1707 10.419 61.3333 10.3405 61.4228 10.2777C61.5108 10.2161 61.5894 10.1441 61.6569 10.0638C61.7256 9.98195 61.8115 9.83336 61.863 9.41616C61.9171 8.97705 61.9189 8.39125 61.9189 7.4892V5.9939C61.9189 5.09185 61.9171 4.50605 61.863 4.06697C61.8115 3.64972 61.7256 3.50115 61.6569 3.4193C61.5894 3.33896 61.5108 3.26705 61.4228 3.20539C61.3333 3.14259 61.1707 3.06407 60.7142 3.01703C60.2337 2.96753 59.3755 2.96592 58.3885 2.96592C57.4016 2.96592 56.6052 2.96753 56.1248 3.01703Z" fill="#2F6EBA"/>
<path fill-rule="evenodd" clip-rule="evenodd" d="M31.4458 0.797548C31.4673 0.797549 31.489 0.797551 31.5106 0.797551C31.5323 0.797551 31.5539 0.797549 31.5753 0.797548C32.4794 0.797512 33.2555 0.797481 33.8847 0.862312C34.5528 0.931148 35.2004 1.08438 35.7718 1.48507C36.0241 1.66207 36.2501 1.86855 36.4437 2.09921C36.8822 2.62141 37.0499 3.21329 37.1252 3.82389C37.1961 4.39895 37.1961 5.10825 37.196 5.93451V7.54822C37.1961 8.37448 37.1961 9.08378 37.1252 9.65883C37.0499 10.2694 36.8822 10.8613 36.4437 11.3835C36.2501 11.6142 36.0241 11.8207 35.7718 11.9976C35.2004 12.3984 34.5528 12.5516 33.8847 12.6204C33.2555 12.6853 32.4794 12.6852 31.5753 12.6852H31.4458C30.5417 12.6852 29.7656 12.6853 29.1365 12.6204C28.4684 12.5516 27.8208 12.3984 27.2494 11.9976C26.997 11.8207 26.7711 11.6142 26.5774 11.3835C26.139 10.8613 25.9713 10.2694 25.896 9.65883C25.8251 9.08378 25.8251 8.37447 25.8252 7.5482V5.99372C25.8252 5.97393 25.8252 5.95419 25.8252 5.93453C25.8251 5.10826 25.8251 4.39896 25.896 3.82389C25.9713 3.21329 26.139 2.62141 26.5774 2.09921C26.7711 1.86855 26.997 1.66207 27.2494 1.48507C27.8208 1.08438 28.4684 0.931148 29.1365 0.862312C29.7656 0.797481 30.5417 0.797512 31.4458 0.797548ZM29.2469 3.01685C28.7903 3.06388 28.6277 3.14241 28.5382 3.20521C28.4502 3.26686 28.3716 3.33878 28.3041 3.41912C28.2354 3.50097 28.1495 3.64954 28.0981 4.06678C28.0439 4.50587 28.0421 5.09167 28.0421 5.99372V7.48902C28.0421 8.39106 28.0439 8.97686 28.0981 9.41597C28.1495 9.83318 28.2354 9.98176 28.3041 10.0636C28.3716 10.1439 28.4502 10.2159 28.5382 10.2775C28.6277 10.3403 28.7903 10.4188 29.2469 10.4659C29.7273 10.5153 30.5236 10.517 31.5106 10.517C32.4976 10.517 33.3559 10.5153 33.8363 10.4659C34.2928 10.4188 34.4554 10.3403 34.5449 10.2775C34.6328 10.2159 34.7115 10.1439 34.779 10.0636C34.8477 9.98176 34.9336 9.83318 34.9851 9.41597C35.0392 8.97686 35.041 8.39106 35.041 7.48902V5.99372C35.041 5.09167 35.0392 4.50587 34.9851 4.06678C34.9336 3.64954 34.8477 3.50097 34.779 3.41912C34.7115 3.33878 34.6328 3.26686 34.5449 3.20521C34.4554 3.14241 34.2928 3.06388 33.8363 3.01685C33.3559 2.96734 32.4976 2.96573 31.5106 2.96573C30.5236 2.96573 29.7273 2.96734 29.2469 3.01685Z" fill="#D93B33"/>
<path fill-rule="evenodd" clip-rule="evenodd" d="M95.5375 0.797731C95.5587 0.797732 95.5808 0.797733 95.602 0.797733C95.6241 0.797733 95.6453 0.797732 95.6674 0.797731C96.5709 0.797695 97.347 0.797663 97.9764 0.862495C98.6447 0.931331 99.2926 1.08456 99.8637 1.48525C100.117 1.66226 100.342 1.86873 100.536 2.0994C100.974 2.62159 101.142 3.21347 101.217 3.82406C101.288 4.39913 101.288 5.10843 101.288 5.93469V7.54839C101.288 8.37466 101.288 9.08395 101.217 9.65902C101.142 10.2696 100.974 10.8615 100.536 11.3837C100.342 11.6144 100.117 11.8208 99.8637 11.9978C99.2926 12.3986 98.6447 12.5518 97.9764 12.6206C97.347 12.6855 96.5709 12.6854 95.6674 12.6854H95.5375C94.6332 12.6854 93.857 12.6855 93.2285 12.6206C92.5603 12.5518 91.9123 12.3986 91.3413 11.9978C91.0884 11.8208 90.863 11.6144 90.6694 11.3837C90.231 10.8615 90.063 10.2696 89.9879 9.65902C89.9163 9.08395 89.9163 8.37464 89.9172 7.54837V5.99389C89.9172 5.9741 89.9172 5.95437 89.9172 5.9347C89.9163 5.10844 89.9163 4.39914 89.9879 3.82406C90.063 3.21347 90.231 2.62159 90.6694 2.0994C90.863 1.86873 91.0884 1.66226 91.3413 1.48525C91.9123 1.08456 92.5603 0.931331 93.2285 0.862495C93.857 0.797663 94.6332 0.797695 95.5375 0.797731ZM93.3382 3.01703C92.882 3.06406 92.7194 3.14258 92.6301 3.20539C92.5417 3.26704 92.463 3.33896 92.3958 3.41931C92.3269 3.50116 92.2411 3.64971 92.1899 4.06696C92.1359 4.50605 92.1342 5.09185 92.1342 5.99389V7.48919C92.1342 8.39124 92.1359 8.97704 92.1899 9.41616C92.2411 9.83337 92.3269 9.98195 92.3958 10.0638C92.463 10.1441 92.5417 10.216 92.6301 10.2777C92.7194 10.3405 92.882 10.419 93.3382 10.4661C93.819 10.5155 94.6155 10.5172 95.602 10.5172C96.5894 10.5172 97.4478 10.5155 97.9278 10.4661C98.3848 10.419 98.5474 10.3405 98.6367 10.2777C98.7251 10.216 98.8038 10.1441 98.871 10.0638C98.9399 9.98195 99.0257 9.83337 99.0769 9.41616C99.1309 8.97704 99.1326 8.39124 99.1326 7.48919V5.99389C99.1326 5.09185 99.1309 4.50605 99.0769 4.06696C99.0257 3.64971 98.9399 3.50116 98.871 3.41931C98.8038 3.33896 98.7251 3.26704 98.6367 3.20539C98.5474 3.14258 98.3848 3.06406 97.9278 3.01703C97.4478 2.96753 96.5894 2.96591 95.602 2.96591C94.6155 2.96591 93.819 2.96753 93.3382 3.01703Z" fill="#2F6EBA"/>
<path fill-rule="evenodd" clip-rule="evenodd" d="M120.345 0.797731C120.367 0.797732 120.388 0.797733 120.41 0.797733C120.431 0.797733 120.453 0.797732 120.475 0.797731C121.379 0.797695 122.155 0.797664 122.784 0.862495C123.452 0.931332 124.099 1.08456 124.671 1.48526C124.923 1.66226 125.15 1.86873 125.343 2.0994C125.782 2.6216 125.949 3.21347 126.025 3.82408C126.095 4.39915 126.095 5.10844 126.095 5.9347V7.54842C126.095 8.37468 126.095 9.08398 126.025 9.65908C125.949 10.2696 125.782 10.8615 125.343 11.3837C125.15 11.6144 124.923 11.8208 124.671 11.9979C124.099 12.3986 123.452 12.5518 122.784 12.6206C122.155 12.6855 121.379 12.6855 120.475 12.6854H120.345C119.441 12.6855 118.665 12.6855 118.036 12.6206C117.368 12.5518 116.721 12.3986 116.149 11.9979C115.897 11.8208 115.67 11.6144 115.477 11.3837C115.038 10.8615 114.87 10.2696 114.795 9.65908C114.725 9.08397 114.725 8.37467 114.725 7.5484V5.99391C114.725 5.97411 114.725 5.95439 114.725 5.93473C114.725 5.10846 114.725 4.39915 114.795 3.82408C114.87 3.21347 115.038 2.6216 115.477 2.0994C115.67 1.86873 115.897 1.66226 116.149 1.48526C116.721 1.08456 117.368 0.931332 118.036 0.862495C118.665 0.797664 119.441 0.797695 120.345 0.797731ZM118.146 3.01704C117.69 3.06408 117.528 3.14259 117.437 3.20539C117.35 3.26705 117.271 3.33896 117.204 3.41931C117.135 3.50116 117.049 3.64973 116.997 4.06697C116.943 4.50606 116.941 5.09186 116.941 5.99391V7.48921C116.941 8.39126 116.943 8.97707 116.997 9.41614C117.049 9.83344 117.135 9.98193 117.204 10.0638C117.271 10.1442 117.35 10.2161 117.437 10.2777C117.528 10.3406 117.69 10.4191 118.146 10.4661C118.627 10.5156 119.423 10.5172 120.41 10.5172C121.397 10.5172 122.256 10.5156 122.736 10.4661C123.192 10.4191 123.354 10.3406 123.445 10.2777C123.532 10.2161 123.611 10.1442 123.678 10.0638C123.747 9.98193 123.833 9.83344 123.885 9.41614C123.939 8.97707 123.94 8.39126 123.94 7.48921V5.99391C123.94 5.09186 123.939 4.50606 123.885 4.06697C123.833 3.64973 123.747 3.50116 123.678 3.41931C123.611 3.33896 123.532 3.26705 123.445 3.20539C123.354 3.14259 123.192 3.06408 122.736 3.01704C122.256 2.96753 121.397 2.96592 120.41 2.96592C119.423 2.96592 118.627 2.96753 118.146 3.01704Z" fill="#2F6EBA"/>
<path fill-rule="evenodd" clip-rule="evenodd" d="M48.5938 10.5882L45.2079 3.10736L41.8348 10.5882H48.5938ZM50.8691 10.5882L46.7097 1.45516C46.2874 0.582521 44.1182 0.575015 43.7013 1.4541L39.5464 10.5882H39.3264C38.7211 10.5882 38.2305 11.0576 38.2305 11.6368C38.2305 12.2159 38.7211 12.6854 39.3264 12.6854H51.0896C51.6949 12.6854 52.1855 12.2159 52.1855 11.6368C52.1855 11.0576 51.6949 10.5882 51.0896 10.5882H50.8691Z" fill="#2F6EBA"/>
<path fill-rule="evenodd" clip-rule="evenodd" d="M75.682 2.78551L70.0963 6.75413L75.9933 10.6842C76.4963 11.0195 76.6283 11.6932 76.2881 12.189C75.9479 12.6847 75.2643 12.8148 74.7611 12.4795L68.4413 8.26762C68.1647 8.08331 67.9585 7.84407 67.8224 7.57781V11.6015C67.8224 12.2001 67.33 12.6852 66.7227 12.6852C66.1154 12.6852 65.623 12.2001 65.623 11.6015V1.88574C65.623 1.28724 66.1154 0.802056 66.7227 0.802056C67.33 0.802056 67.8224 1.28724 67.8224 1.88574V5.924C67.9613 5.65208 68.1732 5.40854 68.4579 5.22316L74.4696 0.977191C74.9763 0.647265 75.6585 0.784611 75.9933 1.28396C76.3281 1.78331 76.1887 2.45557 75.682 2.78551Z" fill="#2F6EBA"/>
<path fill-rule="evenodd" clip-rule="evenodd" d="M77.511 1.83126C77.511 1.26035 78.0064 0.797546 78.6175 0.797546H87.7748C88.3859 0.797546 88.8818 1.26035 88.8818 1.83126C88.8818 2.40216 88.3859 2.86496 87.7748 2.86496H78.6175C78.0064 2.86496 77.511 2.40216 77.511 1.83126Z" fill="#2F6EBA"/>
<path fill-rule="evenodd" clip-rule="evenodd" d="M83.1968 0.797729C83.7677 0.797729 84.2305 1.28309 84.2305 1.88182V11.6012C84.2305 12.2 83.7677 12.6854 83.1968 12.6854C82.6259 12.6854 82.1631 12.2 82.1631 11.6012V1.88182C82.1631 1.28309 82.6259 0.797729 83.1968 0.797729Z" fill="#2F6EBA"/>
</svg>
